<svg version="1.1" viewBox="0.0 0.0 960.0 720.0" fill="none" stroke="none" stroke-linecap="square" stroke-miterlimit="10" xmlns:xlink="http://www.w3.org/1999/xlink" xmlns="http://www.w3.org/2000/svg"><clipPath id="p.0"><path d="m0 0l960.0 0l0 720.0l-960.0 0l0 -720.0z" clip-rule="nonzero"/></clipPath><g clip-path="url(#p.0)"><path fill="#616161" d="m0 0l960.0 0l0 720.0l-960.0 0z" fill-rule="evenodd"/><path fill="#fa8c4d" d="m-83.95693 139.96071l642.96063 642.96063l-147.24411 147.24408l-642.96063 -642.9606z" fill-rule="evenodd"/><path stroke="#fa8c4d" stroke-width="1.0" stroke-linejoin="round" stroke-linecap="butt" d="m-83.95693 139.96071l642.96063 642.96063l-147.24411 147.24408l-642.96063 -642.9606z" fill-rule="evenodd"/><path fill="#fa8c4d" d="m562.5203 -238.38608l642.96063 642.96063l-198.80316 198.80313l-642.96063 -642.96063z" fill-rule="evenodd"/><path stroke="#fa8c4d" stroke-width="1.0" stroke-linejoin="round" stroke-linecap="butt" d="m562.5203 -238.38608l642.96063 642.96063l-198.80316 198.80313l-642.96063 -642.96063z" fill-rule="evenodd"/><path fill="#434343" d="m-29.669607 -238.38593l525.6693 525.7008l-61.826782 61.826782l-525.6693 -525.7008z" fill-rule="evenodd"/><path stroke="#434343" stroke-width="1.0" stroke-linejoin="round" stroke-linecap="butt" d="m-29.669607 -238.38593l525.6693 525.7008l-61.826782 61.826782l-525.6693 -525.7008z" fill-rule="evenodd"/><path fill="#f7f9f8" d="m477.46426 474.38046l525.6693 525.7008l-61.826782 61.826843l-525.6693 -525.70087z" fill-rule="evenodd"/><path stroke="#f7f9f8" stroke-width="1.0" stroke-linejoin="round" stroke-linecap="butt" d="m477.46426 474.38046l525.6693 525.7008l-61.826782 61.826843l-525.6693 -525.70087z" fill-rule="evenodd"/></g></svg>